<svg width="26" height="22" viewBox="0 0 26 22" fill="none" xmlns="http://www.w3.org/2000/svg">
<rect x="15.8555" y="10.9741" width="3" height="3" fill="#CCCCCC"/>
<path fill-rule="evenodd" clip-rule="evenodd" d="M17.8555 10.9741H16.8555V11.9741H15.8555V12.9741H16.8555V13.9741H17.8555V12.9741H18.8555V11.9741H17.8555V10.9741Z" fill="#9E9E9E"/>
<rect x="8.85547" y="10.9741" width="3" height="3" fill="#CCCCCC"/>
<path fill-rule="evenodd" clip-rule="evenodd" d="M10.8555 10.9741H9.85547V11.9741H8.85547V12.9741H9.85547V13.9741H10.8555V12.9741H11.8555V11.9741H10.8555V10.9741Z" fill="#9E9E9E"/>
<path fill-rule="evenodd" clip-rule="evenodd" d="M4.17944 12.3367L4.10693 3.28174C4.10693 3.28174 4.82324 1.03955 6.47217 1.03955C8.12109 1.03955 10.3464 3.61108 13.3533 3.61108C16.3601 3.61108 18.6177 1 20.4058 1C22.1938 1 22.9048 3.51196 22.9048 3.51196L23.0745 14.2351C23.0745 14.2351 17.3225 20.948 13.9053 20.6296C10.488 20.3113 4.3042 16.166 4.20557 14.906C4.10693 13.646 4.17944 12.3367 4.17944 12.3367Z" stroke="#9E9E9E"/>
<rect x="11.8555" y="14.9741" width="3" height="1" fill="#9E9E9E"/>
<rect x="12.8555" y="13.9741" width="1" height="1" fill="#9E9E9E"/>
<path d="M6.64844 13.1252L1 14.4595" stroke="#9E9E9E"/>
<path d="M6.61401 16.9421L2.74829 17.8252" stroke="#9E9E9E"/>
<path d="M20.9399 17.1287L23.7329 17.6819" stroke="#9E9E9E"/>
<path d="M21.0605 13.2371L25.8027 14.644" stroke="#9E9E9E"/>
<path d="M5.79492 8.56689H4.15503" stroke="#9E9E9E"/>
<path d="M21.3088 8.5022L23.6736 6.2124" stroke="#9E9E9E"/>
<path d="M16.3701 3.41382L16.3047 4.9165" stroke="#9E9E9E"/>
<path d="M11.6907 3.25977L11.6626 4.6062" stroke="#9E9E9E"/>
</svg>
